STARTFONT 2.1
FONT -FontForge-Public Pixel-Book-R-Normal--16-150-75-75-C-160-ISO10646-1
SIZE 15 75 75
FONTBOUNDINGBOX 14 14 0 0
COMMENT "Generated by fontforge, http://fontforge.sourceforge.net"
STARTPROPERTIES 32
FOUNDRY "FontForge"
FAMILY_NAME "Public Pixel"
WEIGHT_NAME "Book"
SLANT "R"
SETWIDTH_NAME "Normal"
ADD_STYLE_NAME ""
PIXEL_SIZE 16
POINT_SIZE 150
RESOLUTION_X 75
RESOLUTION_Y 75
SPACING "C"
AVERAGE_WIDTH 160
CHARSET_REGISTRY "ISO10646"
CHARSET_ENCODING "1"
FONTNAME_REGISTRY ""
CHARSET_COLLECTIONS "ISO10646-1"
FONT_NAME "PublicPixel"
FACE_NAME "Public Pixel"
COPYRIGHT "Generated by fontforge, http://fontforge.sourceforge.net"
FONT_VERSION "001.000"
FONT_ASCENT 16
FONT_DESCENT 0
UNDERLINE_POSITION 0
UNDERLINE_THICKNESS 1
X_HEIGHT 9
CAP_HEIGHT 13
RAW_ASCENT 1000
RAW_DESCENT 0
NORM_SPACE 16
FIGURE_WIDTH 16
AVG_LOWERCASE_WIDTH 160
AVG_UPPERCASE_WIDTH 160
ENDPROPERTIES
CHARS 96
STARTCHAR space
ENCODING 32
SWIDTH 1000 0
DWIDTH 16 0
BBX 1 1 1 0
BITMAP
00
ENDCHAR
STARTCHAR exclam
ENCODING 33
SWIDTH 1000 0
DWIDTH 16 0
BBX 8 14 2 0
BITMAP
3C
3C
FF
FF
FF
FF
FF
FF
3C
3C
00
00
3C
3C
ENDCHAR
STARTCHAR quotedbl
ENCODING 34
SWIDTH 1000 0
DWIDTH 16 0
BBX 10 8 2 6
BITMAP
F3C0
F3C0
F3C0
F3C0
30C0
30C0
C300
C300
ENDCHAR
STARTCHAR numbersign
ENCODING 35
SWIDTH 1000 0
DWIDTH 16 0
BBX 14 14 0 0
BITMAP
3CF0
3CF0
FFFC
FFFC
3CF0
3CF0
3CF0
3CF0
3CF0
3CF0
FFFC
FFFC
3CF0
3CF0
ENDCHAR
STARTCHAR dollar
ENCODING 36
SWIDTH 1000 0
DWIDTH 16 0
BBX 14 14 0 0
BITMAP
0300
0300
3FFC
3FFC
F300
F300
3FF0
3FF0
033C
033C
FFF0
FFF0
0300
0300
ENDCHAR
STARTCHAR percent
ENCODING 37
SWIDTH 1000 0
DWIDTH 16 0
BBX 14 14 0 0
BITMAP
300C
300C
CC3C
CC3C
30F0
30F0
03C0
03C0
0F30
0F30
3CCC
3CCC
F030
F030
ENDCHAR
STARTCHAR ampersand
ENCODING 38
SWIDTH 1000 0
DWIDTH 16 0
BBX 14 14 0 0
BITMAP
3F00
3F00
F3C0
F3C0
3F00
3F00
F3CC
F3CC
F0FC
F0FC
F03C
F03C
3FF0
3FF0
ENDCHAR
STARTCHAR quotesingle
ENCODING 39
SWIDTH 1000 0
DWIDTH 16 0
BBX 4 8 4 6
BITMAP
F0
F0
F0
F0
30
30
C0
C0
ENDCHAR
STARTCHAR parenleft
ENCODING 40
SWIDTH 1000 0
DWIDTH 16 0
BBX 10 14 2 0
BITMAP
0FC0
0FC0
3C00
3C00
F000
F000
F000
F000
F000
F000
3C00
3C00
0FC0
0FC0
ENDCHAR
STARTCHAR parenright
ENCODING 41
SWIDTH 1000 0
DWIDTH 16 0
BBX 10 14 2 0
BITMAP
FC00
FC00
0F00
0F00
03C0
03C0
03C0
03C0
03C0
03C0
0F00
0F00
FC00
FC00
ENDCHAR
STARTCHAR asterisk
ENCODING 42
SWIDTH 1000 0
DWIDTH 16 0
BBX 10 6 2 8
BITMAP
F3C0
F3C0
3F00
3F00
F3C0
F3C0
ENDCHAR
STARTCHAR plus
ENCODING 43
SWIDTH 1000 0
DWIDTH 16 0
BBX 10 10 2 0
BITMAP
0C00
0C00
0C00
0C00
FFC0
FFC0
0C00
0C00
0C00
0C00
ENDCHAR
STARTCHAR comma
ENCODING 44
SWIDTH 1000 0
DWIDTH 16 0
BBX 4 8 4 0
BITMAP
F0
F0
F0
F0
30
30
C0
C0
ENDCHAR
STARTCHAR hyphen
ENCODING 45
SWIDTH 1000 0
DWIDTH 16 0
BBX 10 2 2 4
BITMAP
FFC0
FFC0
ENDCHAR
STARTCHAR period
ENCODING 46
SWIDTH 1000 0
DWIDTH 16 0
BBX 4 4 4 0
BITMAP
F0
F0
F0
F0
ENDCHAR
STARTCHAR slash
ENCODING 47
SWIDTH 1000 0
DWIDTH 16 0
BBX 12 14 0 0
BITMAP
0030
0030
00F0
00F0
03C0
03C0
0F00
0F00
3C00
3C00
F000
F000
C000
C000
ENDCHAR
STARTCHAR zero
ENCODING 48
SWIDTH 1000 0
DWIDTH 16 0
BBX 14 14 0 0
BITMAP
3FF0
3FF0
F0FC
F0FC
F03C
F03C
F03C
F03C
F03C
F03C
FC3C
FC3C
3FF0
3FF0
ENDCHAR
STARTCHAR one
ENCODING 49
SWIDTH 1000 0
DWIDTH 16 0
BBX 12 14 2 0
BITMAP
FF00
FF00
0F00
0F00
0F00
0F00
0F00
0F00
0F00
0F00
0F00
0F00
FFF0
FFF0
ENDCHAR
STARTCHAR two
ENCODING 50
SWIDTH 1000 0
DWIDTH 16 0
BBX 14 14 0 0
BITMAP
3FF0
3FF0
F03C
F03C
00F0
00F0
0FC0
0FC0
3C00
3C00
F000
F000
FFFC
FFFC
ENDCHAR
STARTCHAR three
ENCODING 51
SWIDTH 1000 0
DWIDTH 16 0
BBX 14 14 0 0
BITMAP
3FF0
3FF0
F03C
F03C
003C
003C
0FF0
0FF0
003C
003C
F03C
F03C
3FF0
3FF0
ENDCHAR
STARTCHAR four
ENCODING 52
SWIDTH 1000 0
DWIDTH 16 0
BBX 14 14 0 0
BITMAP
03FC
03FC
0F3C
0F3C
3C3C
3C3C
F03C
F03C
FFFC
FFFC
003C
003C
003C
003C
ENDCHAR
STARTCHAR five
ENCODING 53
SWIDTH 1000 0
DWIDTH 16 0
BBX 14 14 0 0
BITMAP
FFFC
FFFC
F000
F000
FFF0
FFF0
003C
003C
003C
003C
F03C
F03C
3FF0
3FF0
ENDCHAR
STARTCHAR six
ENCODING 54
SWIDTH 1000 0
DWIDTH 16 0
BBX 14 14 0 0
BITMAP
3FF0
3FF0
F03C
F03C
F000
F000
FFF0
FFF0
F03C
F03C
F03C
F03C
3FF0
3FF0
ENDCHAR
STARTCHAR seven
ENCODING 55
SWIDTH 1000 0
DWIDTH 16 0
BBX 14 14 0 0
BITMAP
FFFC
FFFC
F03C
F03C
00F0
00F0
03C0
03C0
0F00
0F00
3C00
3C00
F000
F000
ENDCHAR
STARTCHAR eight
ENCODING 56
SWIDTH 1000 0
DWIDTH 16 0
BBX 14 14 0 0
BITMAP
3FF0
3FF0
F03C
F03C
F03C
F03C
3FF0
3FF0
F03C
F03C
F03C
F03C
3FF0
3FF0
ENDCHAR
STARTCHAR nine
ENCODING 57
SWIDTH 1000 0
DWIDTH 16 0
BBX 14 14 0 0
BITMAP
3FF0
3FF0
F03C
F03C
F03C
F03C
3FFC
3FFC
003C
003C
F03C
F03C
3FF0
3FF0
ENDCHAR
STARTCHAR colon
ENCODING 58
SWIDTH 1000 0
DWIDTH 16 0
BBX 4 10 4 0
BITMAP
F0
F0
F0
F0
00
00
F0
F0
F0
F0
ENDCHAR
STARTCHAR semicolon
ENCODING 59
SWIDTH 1000 0
DWIDTH 16 0
BBX 4 10 4 0
BITMAP
F0
F0
F0
F0
00
00
F0
F0
30
30
ENDCHAR
STARTCHAR less
ENCODING 60
SWIDTH 1000 0
DWIDTH 16 0
BBX 10 10 2 0
BITMAP
0FC0
0FC0
3F00
3F00
FC00
FC00
3F00
3F00
0FC0
0FC0
ENDCHAR
STARTCHAR equal
ENCODING 61
SWIDTH 1000 0
DWIDTH 16 0
BBX 10 6 2 2
BITMAP
FFC0
FFC0
0000
0000
FFC0
FFC0
ENDCHAR
STARTCHAR greater
ENCODING 62
SWIDTH 1000 0
DWIDTH 16 0
BBX 10 10 2 0
BITMAP
FC00
FC00
3F00
3F00
0FC0
0FC0
3F00
3F00
FC00
FC00
ENDCHAR
STARTCHAR question
ENCODING 63
SWIDTH 1000 0
DWIDTH 16 0
BBX 14 14 0 0
BITMAP
3FF0
3FF0
F03C
F03C
003C
003C
0FF0
0FF0
0F00
0F00
0000
0000
0F00
0F00
ENDCHAR
STARTCHAR at
ENCODING 64
SWIDTH 1000 0
DWIDTH 16 0
BBX 14 14 0 0
BITMAP
3FF0
3FF0
F03C
F03C
F33C
F33C
F33C
F33C
F3F0
F3F0
F000
F000
3FF0
3FF0
ENDCHAR
STARTCHAR A
ENCODING 65
SWIDTH 1000 0
DWIDTH 16 0
BBX 14 14 0 0
BITMAP
0FC0
0FC0
3CF0
3CF0
F03C
F03C
F03C
F03C
FFFC
FFFC
F03C
F03C
F03C
F03C
ENDCHAR
STARTCHAR B
ENCODING 66
SWIDTH 1000 0
DWIDTH 16 0
BBX 14 14 0 0
BITMAP
FFF0
FFF0
F03C
F03C
F03C
F03C
FFF0
FFF0
F03C
F03C
F03C
F03C
FFF0
FFF0
ENDCHAR
STARTCHAR C
ENCODING 67
SWIDTH 1000 0
DWIDTH 16 0
BBX 14 14 0 0
BITMAP
3FF0
3FF0
F03C
F03C
F000
F000
F000
F000
F000
F000
F03C
F03C
3FF0
3FF0
ENDCHAR
STARTCHAR D
ENCODING 68
SWIDTH 1000 0
DWIDTH 16 0
BBX 14 14 0 0
BITMAP
FFC0
FFC0
F0F0
F0F0
F03C
F03C
F03C
F03C
F03C
F03C
F0F0
F0F0
FFC0
FFC0
ENDCHAR
STARTCHAR E
ENCODING 69
SWIDTH 1000 0
DWIDTH 16 0
BBX 14 14 0 0
BITMAP
FFFC
FFFC
F000
F000
F000
F000
FFC0
FFC0
F000
F000
F000
F000
FFFC
FFFC
ENDCHAR
STARTCHAR F
ENCODING 70
SWIDTH 1000 0
DWIDTH 16 0
BBX 14 14 0 0
BITMAP
FFFC
FFFC
F000
F000
F000
F000
FFC0
FFC0
F000
F000
F000
F000
F000
F000
ENDCHAR
STARTCHAR G
ENCODING 71
SWIDTH 1000 0
DWIDTH 16 0
BBX 14 14 0 0
BITMAP
3FFC
3FFC
F000
F000
F000
F000
F3FC
F3FC
F03C
F03C
F03C
F03C
3FFC
3FFC
ENDCHAR
STARTCHAR H
ENCODING 72
SWIDTH 1000 0
DWIDTH 16 0
BBX 14 14 0 0
BITMAP
F03C
F03C
F03C
F03C
F03C
F03C
FFFC
FFFC
F03C
F03C
F03C
F03C
F03C
F03C
ENDCHAR
STARTCHAR I
ENCODING 73
SWIDTH 1000 0
DWIDTH 16 0
BBX 12 14 2 0
BITMAP
FFF0
FFF0
0F00
0F00
0F00
0F00
0F00
0F00
0F00
0F00
0F00
0F00
FFF0
FFF0
ENDCHAR
STARTCHAR J
ENCODING 74
SWIDTH 1000 0
DWIDTH 16 0
BBX 14 14 0 0
BITMAP
03FC
03FC
003C
003C
003C
003C
003C
003C
F03C
F03C
F03C
F03C
3FF0
3FF0
ENDCHAR
STARTCHAR K
ENCODING 75
SWIDTH 1000 0
DWIDTH 16 0
BBX 14 14 0 0
BITMAP
F03C
F03C
F0F0
F0F0
F3C0
F3C0
FF00
FF00
F3C0
F3C0
F0F0
F0F0
F03C
F03C
ENDCHAR
STARTCHAR L
ENCODING 76
SWIDTH 1000 0
DWIDTH 16 0
BBX 14 14 0 0
BITMAP
F000
F000
F000
F000
F000
F000
F000
F000
F000
F000
F000
F000
FFFC
FFFC
ENDCHAR
STARTCHAR M
ENCODING 77
SWIDTH 1000 0
DWIDTH 16 0
BBX 14 14 0 0
BITMAP
F03C
F03C
FCFC
FCFC
FFFC
FFFC
F33C
F33C
F03C
F03C
F03C
F03C
F03C
F03C
ENDCHAR
STARTCHAR N
ENCODING 78
SWIDTH 1000 0
DWIDTH 16 0
BBX 14 14 0 0
BITMAP
F03C
F03C
FC3C
FC3C
FF3C
FF3C
F3FC
F3FC
F0FC
F0FC
F03C
F03C
F03C
F03C
ENDCHAR
STARTCHAR O
ENCODING 79
SWIDTH 1000 0
DWIDTH 16 0
BBX 14 14 0 0
BITMAP
3FF0
3FF0
F03C
F03C
F03C
F03C
F03C
F03C
F03C
F03C
F03C
F03C
3FF0
3FF0
ENDCHAR
STARTCHAR P
ENCODING 80
SWIDTH 1000 0
DWIDTH 16 0
BBX 14 14 0 0
BITMAP
FFF0
FFF0
F03C
F03C
F03C
F03C
FFF0
FFF0
F000
F000
F000
F000
F000
F000
ENDCHAR
STARTCHAR Q
ENCODING 81
SWIDTH 1000 0
DWIDTH 16 0
BBX 14 14 0 0
BITMAP
3FF0
3FF0
F03C
F03C
F03C
F03C
F03C
F03C
F3FC
F3FC
F0F0
F0F0
3FCC
3FCC
ENDCHAR
STARTCHAR R
ENCODING 82
SWIDTH 1000 0
DWIDTH 16 0
BBX 14 14 0 0
BITMAP
FFF0
FFF0
F03C
F03C
F03C
F03C
FFF0
FFF0
F3C0
F3C0
F0F0
F0F0
F03C
F03C
ENDCHAR
STARTCHAR S
ENCODING 83
SWIDTH 1000 0
DWIDTH 16 0
BBX 14 14 0 0
BITMAP
3FF0
3FF0
F03C
F03C
F000
F000
3FF0
3FF0
003C
003C
F03C
F03C
3FF0
3FF0
ENDCHAR
STARTCHAR T
ENCODING 84
SWIDTH 1000 0
DWIDTH 16 0
BBX 12 14 2 0
BITMAP
FFF0
FFF0
0F00
0F00
0F00
0F00
0F00
0F00
0F00
0F00
0F00
0F00
0F00
0F00
ENDCHAR
STARTCHAR U
ENCODING 85
SWIDTH 1000 0
DWIDTH 16 0
BBX 14 14 0 0
BITMAP
F03C
F03C
F03C
F03C
F03C
F03C
F03C
F03C
F03C
F03C
F03C
F03C
3FF0
3FF0
ENDCHAR
STARTCHAR V
ENCODING 86
SWIDTH 1000 0
DWIDTH 16 0
BBX 14 14 0 0
BITMAP
F03C
F03C
F03C
F03C
F03C
F03C
F03C
F03C
3CF0
3CF0
0FC0
0FC0
0300
0300
ENDCHAR
STARTCHAR W
ENCODING 87
SWIDTH 1000 0
DWIDTH 16 0
BBX 14 14 0 0
BITMAP
F03C
F03C
F03C
F03C
F33C
F33C
FFFC
FFFC
FCFC
FCFC
F03C
F03C
F03C
F03C
ENDCHAR
STARTCHAR X
ENCODING 88
SWIDTH 1000 0
DWIDTH 16 0
BBX 14 14 0 0
BITMAP
F03C
F03C
FCFC
FCFC
3FF0
3FF0
0FC0
0FC0
3FF0
3FF0
FCFC
FCFC
F03C
F03C
ENDCHAR
STARTCHAR Y
ENCODING 89
SWIDTH 1000 0
DWIDTH 16 0
BBX 12 14 2 0
BITMAP
F0F0
F0F0
F0F0
F0F0
F0F0
F0F0
3FC0
3FC0
0F00
0F00
0F00
0F00
0F00
0F00
ENDCHAR
STARTCHAR Z
ENCODING 90
SWIDTH 1000 0
DWIDTH 16 0
BBX 14 14 0 0
BITMAP
FFFC
FFFC
00FC
00FC
03F0
03F0
0FC0
0FC0
3F00
3F00
FC00
FC00
FFFC
FFFC
ENDCHAR
STARTCHAR bracketleft
ENCODING 91
SWIDTH 1000 0
DWIDTH 16 0
BBX 10 14 2 0
BITMAP
FFC0
FFC0
F000
F000
F000
F000
F000
F000
F000
F000
F000
F000
FFC0
FFC0
ENDCHAR
STARTCHAR backslash
ENCODING 92
SWIDTH 1000 0
DWIDTH 16 0
BBX 12 14 2 0
BITMAP
C000
C000
F000
F000
3C00
3C00
0F00
0F00
03C0
03C0
00F0
00F0
0030
0030
ENDCHAR
STARTCHAR bracketright
ENCODING 93
SWIDTH 1000 0
DWIDTH 16 0
BBX 10 14 2 0
BITMAP
FFC0
FFC0
03C0
03C0
03C0
03C0
03C0
03C0
03C0
03C0
03C0
03C0
FFC0
FFC0
ENDCHAR
STARTCHAR asciicircum
ENCODING 94
SWIDTH 1000 0
DWIDTH 16 0
BBX 14 8 0 6
BITMAP
0300
0300
0FC0
0FC0
3CF0
3CF0
F03C
F03C
ENDCHAR
STARTCHAR underscore
ENCODING 95
SWIDTH 1000 0
DWIDTH 16 0
BBX 14 2 0 0
BITMAP
FFFC
FFFC
ENDCHAR
STARTCHAR grave
ENCODING 96
SWIDTH 1000 0
DWIDTH 16 0
BBX 4 4 4 10
BITMAP
C0
C0
30
30
ENDCHAR
STARTCHAR a
ENCODING 97
SWIDTH 1000 0
DWIDTH 16 0
BBX 14 10 0 0
BITMAP
3FF0
3FF0
003C
003C
3FFC
3FFC
F03C
F03C
3FFC
3FFC
ENDCHAR
STARTCHAR b
ENCODING 98
SWIDTH 1000 0
DWIDTH 16 0
BBX 14 14 0 0
BITMAP
F000
F000
F000
F000
FFF0
FFF0
F03C
F03C
F03C
F03C
F03C
F03C
FFF0
FFF0
ENDCHAR
STARTCHAR c
ENCODING 99
SWIDTH 1000 0
DWIDTH 16 0
BBX 14 10 0 0
BITMAP
3FF0
3FF0
F03C
F03C
F000
F000
F03C
F03C
3FF0
3FF0
ENDCHAR
STARTCHAR d
ENCODING 100
SWIDTH 1000 0
DWIDTH 16 0
BBX 14 14 0 0
BITMAP
003C
003C
003C
003C
3FFC
3FFC
F03C
F03C
F03C
F03C
F03C
F03C
3FFC
3FFC
ENDCHAR
STARTCHAR e
ENCODING 101
SWIDTH 1000 0
DWIDTH 16 0
BBX 14 10 0 0
BITMAP
3FF0
3FF0
F03C
F03C
FFFC
FFFC
F000
F000
3FF0
3FF0
ENDCHAR
STARTCHAR f
ENCODING 102
SWIDTH 1000 0
DWIDTH 16 0
BBX 14 14 0 0
BITMAP
0FF0
0FF0
0F00
0F00
FFFC
FFFC
0F00
0F00
0F00
0F00
0F00
0F00
0F00
0F00
ENDCHAR
STARTCHAR g
ENCODING 103
SWIDTH 1000 0
DWIDTH 16 0
BBX 14 10 0 0
BITMAP
3FFC
3FFC
F03C
F03C
3FFC
3FFC
003C
003C
3FF0
3FF0
ENDCHAR
STARTCHAR h
ENCODING 104
SWIDTH 1000 0
DWIDTH 16 0
BBX 14 14 0 0
BITMAP
F000
F000
F000
F000
FFF0
FFF0
F03C
F03C
F03C
F03C
F03C
F03C
F03C
F03C
ENDCHAR
STARTCHAR i
ENCODING 105
SWIDTH 1000 0
DWIDTH 16 0
BBX 14 14 0 0
BITMAP
03C0
03C0
0000
0000
3FC0
3FC0
03C0
03C0
03C0
03C0
03C0
03C0
FFFC
FFFC
ENDCHAR
STARTCHAR j
ENCODING 106
SWIDTH 1000 0
DWIDTH 16 0
BBX 14 14 0 0
BITMAP
003C
003C
0000
0000
003C
003C
003C
003C
003C
003C
F03C
F03C
3FF0
3FF0
ENDCHAR
STARTCHAR k
ENCODING 107
SWIDTH 1000 0
DWIDTH 16 0
BBX 14 14 0 0
BITMAP
F000
F000
F000
F000
F03C
F03C
F0F0
F0F0
FFC0
FFC0
F0F0
F0F0
F03C
F03C
ENDCHAR
STARTCHAR l
ENCODING 108
SWIDTH 1000 0
DWIDTH 16 0
BBX 14 14 0 0
BITMAP
F000
F000
F000
F000
F000
F000
F000
F000
F000
F000
3F00
3F00
03FC
03FC
ENDCHAR
STARTCHAR m
ENCODING 109
SWIDTH 1000 0
DWIDTH 16 0
BBX 14 10 0 0
BITMAP
FFF0
FFF0
F33C
F33C
F33C
F33C
F33C
F33C
F33C
F33C
ENDCHAR
STARTCHAR n
ENCODING 110
SWIDTH 1000 0
DWIDTH 16 0
BBX 14 10 0 0
BITMAP
FFF0
FFF0
F03C
F03C
F03C
F03C
F03C
F03C
F03C
F03C
ENDCHAR
STARTCHAR o
ENCODING 111
SWIDTH 1000 0
DWIDTH 16 0
BBX 14 10 0 0
BITMAP
3FF0
3FF0
F03C
F03C
F03C
F03C
F03C
F03C
3FF0
3FF0
ENDCHAR
STARTCHAR p
ENCODING 112
SWIDTH 1000 0
DWIDTH 16 0
BBX 14 10 0 0
BITMAP
FFF0
FFF0
F03C
F03C
FFF0
FFF0
F000
F000
F000
F000
ENDCHAR
STARTCHAR q
ENCODING 113
SWIDTH 1000 0
DWIDTH 16 0
BBX 14 10 0 0
BITMAP
3FFC
3FFC
F03C
F03C
3FFC
3FFC
003C
003C
003C
003C
ENDCHAR
STARTCHAR r
ENCODING 114
SWIDTH 1000 0
DWIDTH 16 0
BBX 14 10 0 0
BITMAP
F3F0
F3F0
FC3C
FC3C
F000
F000
F000
F000
F000
F000
ENDCHAR
STARTCHAR s
ENCODING 115
SWIDTH 1000 0
DWIDTH 16 0
BBX 14 10 0 0
BITMAP
3FFC
3FFC
F000
F000
FFFC
FFFC
003C
003C
FFF0
FFF0
ENDCHAR
STARTCHAR t
ENCODING 116
SWIDTH 1000 0
DWIDTH 16 0
BBX 14 14 0 0
BITMAP
0F00
0F00
0F00
0F00
FFFC
FFFC
0F00
0F00
0F00
0F00
0F00
0F00
0FFC
0FFC
ENDCHAR
STARTCHAR u
ENCODING 117
SWIDTH 1000 0
DWIDTH 16 0
BBX 14 10 0 0
BITMAP
F03C
F03C
F03C
F03C
F03C
F03C
F03C
F03C
3FF0
3FF0
ENDCHAR
STARTCHAR v
ENCODING 118
SWIDTH 1000 0
DWIDTH 16 0
BBX 14 10 0 0
BITMAP
F03C
F03C
F03C
F03C
3CF0
3CF0
0FC0
0FC0
0300
0300
ENDCHAR
STARTCHAR w
ENCODING 119
SWIDTH 1000 0
DWIDTH 16 0
BBX 14 10 0 0
BITMAP
F03C
F03C
F33C
F33C
F33C
F33C
FFFC
FFFC
3CF0
3CF0
ENDCHAR
STARTCHAR x
ENCODING 120
SWIDTH 1000 0
DWIDTH 16 0
BBX 14 10 0 0
BITMAP
FCFC
FCFC
3FF0
3FF0
0FC0
0FC0
3FF0
3FF0
FCFC
FCFC
ENDCHAR
STARTCHAR y
ENCODING 121
SWIDTH 1000 0
DWIDTH 16 0
BBX 14 10 0 0
BITMAP
F03C
F03C
F03C
F03C
3CF0
3CF0
0FC0
0FC0
FF00
FF00
ENDCHAR
STARTCHAR z
ENCODING 122
SWIDTH 1000 0
DWIDTH 16 0
BBX 14 10 0 0
BITMAP
FFFC
FFFC
03F0
03F0
0FC0
0FC0
3F00
3F00
FFFC
FFFC
ENDCHAR
STARTCHAR braceleft
ENCODING 123
SWIDTH 1000 0
DWIDTH 16 0
BBX 10 14 2 0
BITMAP
0FC0
0FC0
3C00
3C00
3C00
3C00
FC00
FC00
3C00
3C00
3C00
3C00
0FC0
0FC0
ENDCHAR
STARTCHAR bar
ENCODING 124
SWIDTH 1000 0
DWIDTH 16 0
BBX 4 14 4 0
BITMAP
F0
F0
F0
F0
F0
F0
F0
F0
F0
F0
F0
F0
F0
F0
ENDCHAR
STARTCHAR braceright
ENCODING 125
SWIDTH 1000 0
DWIDTH 16 0
BBX 10 14 2 0
BITMAP
FC00
FC00
0F00
0F00
0F00
0F00
0FC0
0FC0
0F00
0F00
0F00
0F00
FC00
FC00
ENDCHAR
STARTCHAR asciitilde
ENCODING 126
SWIDTH 1000 0
DWIDTH 16 0
BBX 14 6 0 2
BITMAP
3F3C
3F3C
F33C
F33C
F3F0
F3F0
ENDCHAR
STARTCHAR uni2B1A
ENCODING 11034
SWIDTH 1000 0
DWIDTH 16 0
BBX 14 14 0 0
BITMAP
CCCC
CCCC
0000
0000
C00C
C00C
0000
0000
C00C
C00C
0000
0000
CCCC
CCCC
ENDCHAR
ENDFONT
